# xmcd
#
# Track frame offsets: 
#        150
#        22413
#        37216
#        54775
#        72231
#        87654
#        103064
#        118568
#        135667
#        138356
#        157424
#        171615
#        189321
#        205040
#        218592
#        241404
#
# Disc length: 3458 seconds
#
# Revision: 0
# Processed by: cddbd v1.5.2PL0 Copyright (c) Steve Scherf et al.
# Submitted via: ExactAudioCopyFreeDBPlugin 1.0
#
DISCID=f40d8010
DTITLE=Hanno Bruhn Gang - Berlin uff Blues
DYEAR=2011
DGENRE=Blues
TTITLE0=Am 9ten November '89
TTITLE1=Weeste wat?
TTITLE2=In Mitte im Hotel
TTITLE3=Über den Dächern (mitten in Berlin)
TTITLE4=Berlin
TTITLE5=Meene B.Z.
TTITLE6=Doppelkammerteebeutel-Blues
TTITLE7=Berlin uff Blues
TTITLE8=Halbet Leben (Vorspiel)
TTITLE9=Halbet Leben
TTITLE10=Halbet Leben (Hier in Berlin)
TTITLE11=Ne Molle uff meene Olle
TTITLE12=Hunderunde
TTITLE13=Immer is irjendwat
TTITLE14=U-U-U-Bahn fahr'n
TTITLE15=Es ist spät geworden
EXTD=
EXTT0=
EXTT1=
EXTT2=
EXTT3=
EXTT4=
EXTT5=
EXTT6=
EXTT7=
EXTT8=
EXTT9=
EXTT10=
EXTT11=
EXTT12=
EXTT13=
EXTT14=
EXTT15=
PLAYORDER=
